<?xml version="1.0" encoding="UTF-8"?>
<svg version="1.1" xmlns="http://www.w3.org/2000/svg" width="1024" height="1024">
<path d="M0 0 C337.92 0 675.84 0 1024 0 C1024 337.92 1024 675.84 1024 1024 C686.08 1024 348.16 1024 0 1024 C0 686.08 0 348.16 0 0 Z " fill="#FEFBF4" transform="translate(0,0)"/>
<path d="M0 0 C0.91441864 0.00054382 1.82883728 0.00108765 2.77096558 0.00164795 C84.31906236 0.22314733 159.43181839 39.47345434 220.0390625 91.9375 C222.7744244 94.28855486 225.56183962 96.55552319 228.375 98.8125 C234.18813605 103.55037389 239.66059552 108.6127114 245.12744141 113.74072266 C246.92550088 115.42222728 248.73309798 117.09293878 250.54296875 118.76171875 C259.19930137 126.76143386 267.59838345 134.98360756 275.875 143.375 C274.5832122 146.21515307 273.22716917 148.27198388 271.02099609 150.47192383 C270.44634613 151.04965042 269.87169617 151.62737701 269.27963257 152.22261047 C268.6588382 152.83621933 268.03804382 153.44982819 267.3984375 154.08203125 C266.75435944 154.72565109 266.11028137 155.36927094 265.44668579 156.03239441 C264.08221862 157.39384298 262.71532432 158.75286275 261.34619141 160.10961914 C259.27326306 162.16444015 257.20830021 164.22699987 255.14453125 166.29101562 C253.81296785 167.61765725 252.48095051 168.94384344 251.1484375 170.26953125 C250.23546402 171.18083549 250.23546402 171.18083549 249.30404663 172.11054993 C245.55267326 175.82160204 241.68676331 179.35352943 237.68896484 182.7979126 C234.89125658 185.23028083 232.2030871 187.77621264 229.5 190.3125 C224.15662377 195.278443 218.64072659 199.90292083 212.875 204.375 C211.34166016 205.60089844 211.34166016 205.60089844 209.77734375 206.8515625 C194.13950175 219.34582076 177.79127786 230.68470022 160.875 241.375 C159.93188965 241.97707275 159.93188965 241.97707275 158.96972656 242.59130859 C117.7090497 268.81553151 71.46891116 285.84470224 22.875 291.375 C21.72644531 291.50648438 20.57789063 291.63796875 19.39453125 291.7734375 C16.21784823 292.07137735 13.06335057 292.25294018 9.875 292.375 C8.8835498 292.41584717 8.8835498 292.41584717 7.87207031 292.45751953 C-33.04309662 293.9168088 -73.67894265 284.4072716 -111.125 268.375 C-111.93501465 268.03243164 -112.7450293 267.68986328 -113.57958984 267.33691406 C-151.68303786 251.12878731 -186.4596662 227.89413753 -218.125 201.375 C-218.62950684 200.95541016 -219.13401367 200.53582031 -219.65380859 200.10351562 C-226.66807958 194.26716504 -233.51638401 188.28708651 -240.203125 182.078125 C-242.03266733 180.38555375 -243.87461258 178.70618399 -245.734375 177.046875 C-256.98283352 166.96877632 -267.49331248 156.09451921 -278.125 145.375 C-276.52322218 141.39412835 -273.74269406 138.72006826 -270.7421875 135.76171875 C-270.20908966 135.22907913 -269.67599182 134.69643951 -269.1267395 134.1476593 C-267.99766483 133.02160079 -266.86616559 131.8979688 -265.73242188 130.77661133 C-264.02164129 129.08391256 -262.31882508 127.38352511 -260.6171875 125.68164062 C-254.95189572 120.03497802 -249.21128069 114.57019044 -243.125 109.375 C-241.34929779 107.75532183 -239.57791693 106.13088282 -237.8125 104.5 C-232.41013479 99.57998883 -226.8365688 94.93047378 -221.125 90.375 C-219.58972656 89.14716797 -219.58972656 89.14716797 -218.0234375 87.89453125 C-202.58228748 75.61660847 -186.92491671 63.74117083 -170.125 53.375 C-169.49819336 52.98650879 -168.87138672 52.59801758 -168.22558594 52.19775391 C-163.89582587 49.52549789 -159.52569277 46.92857003 -155.125 44.375 C-154.45452637 43.98489746 -153.78405273 43.59479492 -153.09326172 43.19287109 C-116.71164453 22.16014572 -77.76908296 8.35944963 -36.125 2.375 C-34.96162109 2.19839844 -33.79824219 2.02179688 -32.59960938 1.83984375 C-21.71935242 0.31125773 -10.97874495 -0.02472718 0 0 Z " fill="#FEFBF4" transform="translate(513.125,284.625)"/>
<path d="M0 0 C1.55642592 -0.00763095 3.11284809 -0.01606004 4.66926575 -0.02522278 C8.88028179 -0.0470842 13.09122526 -0.05595554 17.30229163 -0.06104922 C19.9390477 -0.06470313 22.57578506 -0.07094856 25.21253395 -0.07805061 C34.42815605 -0.10251744 43.64372209 -0.11559072 52.859375 -0.11914062 C61.42203279 -0.1227723 69.98433137 -0.15264835 78.54687947 -0.19454521 C85.92044368 -0.22934726 93.29388942 -0.24469078 100.66753513 -0.24538666 C105.0616005 -0.24617619 109.4552996 -0.25476445 113.8492794 -0.28338432 C117.98716333 -0.30973536 122.12438174 -0.31167646 126.26231194 -0.29572868 C127.77106438 -0.29392755 129.27985663 -0.30048261 130.78852463 -0.31654739 C145.26068622 -0.46111394 156.94114556 3.04722896 167.5090332 13.11499023 C174.59512522 20.54492216 177.71994817 29.55968361 177.75776672 39.71168518 C177.76849968 41.69024254 177.76849968 41.69024254 177.77944946 43.70877075 C177.7822896 45.16912818 177.78500135 46.62948587 177.78759766 48.08984375 C177.79386492 49.62921806 177.80051195 51.16859087 177.80751038 52.70796204 C177.82852766 57.76289827 177.83891281 62.81783471 177.84887695 67.87280273 C177.85292583 69.61598158 177.8570428 71.35916027 177.86122704 73.10233879 C177.88027615 81.29559238 177.89450594 89.48883699 177.902839 97.68210846 C177.91260093 107.12327894 177.93889424 116.56421432 177.9793399 126.00530201 C178.00956359 133.31250246 178.02431392 140.61963576 178.02762002 147.92689747 C178.029964 152.28626154 178.03883867 156.64537438 178.06408119 161.0046711 C178.08747573 165.11122157 178.09154984 169.21735743 178.08131981 173.32395744 C178.08082704 174.82387044 178.08707047 176.32380463 178.10087585 177.82365417 C178.21579036 191.05833807 175.97896767 201.51218943 166.6105957 211.30639648 C155.99172645 221.27392245 145.47083622 222.90475398 131.33569336 222.83984375 C129.70838137 222.84691281 128.08107594 222.85566195 126.45378113 222.86595154 C122.05897075 222.88834647 117.6645222 222.88552886 113.26967669 222.87663007 C109.58951034 222.87149887 105.90941073 222.87883009 102.22925127 222.88610214 C93.54120191 222.90307023 84.85332832 222.89956712 76.1652832 222.8828125 C67.22763482 222.86589843 58.29047513 222.88172284 49.35288012 222.91403538 C41.6557028 222.94080038 33.95867695 222.94798855 26.2614578 222.9395203 C21.67466913 222.93461067 17.08817422 222.93669943 12.50142288 222.95730782 C8.18536871 222.97577368 3.87001266 222.96957452 -0.44600487 222.94510841 C-2.02127555 222.94013465 -3.59660044 222.94350002 -5.17182732 222.95625687 C-18.76888515 223.05757963 -29.25481829 220.41151211 -39.19799805 210.75561523 C-49.34297606 199.4171104 -50.84579185 186.91356168 -50.77758789 172.17138672 C-50.78166189 170.6786155 -50.78700839 169.1858473 -50.79351807 167.69308472 C-50.8070979 163.67038927 -50.80193231 159.64792678 -50.79238081 155.62522769 C-50.78473687 151.397856 -50.79184275 147.17050304 -50.79653931 142.94313049 C-50.80198256 135.84779309 -50.79484232 128.75254967 -50.78051758 121.65722656 C-50.7641875 113.47454313 -50.76948791 105.29208395 -50.78599679 97.10940593 C-50.79964504 90.06023451 -50.80151524 83.01113027 -50.79368079 75.96194988 C-50.78902338 71.76208103 -50.78832598 67.56231731 -50.79829025 63.36245537 C-50.80700669 59.41341997 -50.80085347 55.46467161 -50.78360748 51.51566696 C-50.77966773 50.07339897 -50.78073322 48.63110648 -50.78739548 47.1888485 C-50.84828119 32.66001213 -48.08954187 22.43127714 -38.2019043 11.61889648 C-27.12284549 1.0790839 -14.48496895 0.00450835 0 0 Z " fill="#8DD8FD" transform="translate(448.389404296875,318.693603515625)"/>
<path d="M0 0 C1.79357861 1.27383463 3.59538492 2.53524365 5.39892578 3.79492188 C13.76499472 9.66821085 21.83408935 15.87748735 29.80126953 22.27929688 C30.73583984 23.02953125 31.67041016 23.77976562 32.63330078 24.55273438 C43.78394927 33.59733066 54.61018061 42.98321575 65.13037109 52.75170898 C66.37716725 53.89156923 67.63640222 55.01785158 68.90185547 56.13696289 C75.75762104 62.21353736 82.28659531 68.57843023 88.76171875 75.05444336 C90.55727277 76.84779274 92.36071802 78.63295136 94.16455078 80.41796875 C109.94386353 96.11534004 109.94386353 96.11534004 110.92626953 102.90429688 C110.57537429 107.9409274 108.0547941 110.89484677 104.80908203 114.52539062 C104.0197226 115.42596947 104.0197226 115.42596947 103.2144165 116.34474182 C96.70405556 123.66787571 89.76441018 130.58028127 82.80908203 137.47729492 C80.53498051 139.7329538 78.26916979 141.99669965 76.00439453 144.26171875 C74.53611782 145.7250844 73.06738406 147.18799165 71.59814453 148.65039062 C70.60098419 149.64588173 70.60098419 149.64588173 69.5836792 150.66148376 C65.70444075 154.5021345 61.72161551 158.17073067 57.58309937 161.73091125 C55.39573161 163.63170375 53.29215008 165.61110026 51.1875 167.60229492 C45.10162761 173.34897087 38.7524836 178.60282996 32.12158203 183.70507812 C29.20302649 185.95095234 26.37211256 188.28634149 23.55126953 190.65429688 C-38.3642264 241.55247662 -116.84769116 277.47162777 -197.69262695 277.46459961 C-200.49624858 277.4667852 -203.29947487 277.48501141 -206.10302734 277.50390625 C-217.2940634 277.53926575 -228.12636806 276.89153893 -239.19873047 275.27929688 C-240.78947388 275.06019653 -240.78947388 275.06019653 -242.41235352 274.83666992 C-257.00356969 272.75638879 -271.10133451 269.55769262 -285.19873047 265.27929688 C-286.34535156 264.93560059 -286.34535156 264.93560059 -287.51513672 264.58496094 C-325.90036508 252.92383998 -362.40443698 233.23922039 -395.19873047 210.27929688 C-395.7783252 209.87549805 -396.35791992 209.47169922 -396.95507812 209.05566406 C-409.45464049 200.32807848 -421.4853369 191.03774298 -433.19873047 181.27929688 C-433.70903809 180.85535645 -434.2193457 180.43141602 -434.74511719 179.99462891 C-441.74944733 174.16585068 -448.57693659 168.18858305 -455.24951172 161.98242188 C-457.41731373 159.97130591 -459.6408658 158.03918309 -461.88623047 156.11523438 C-467.13167334 151.54371755 -471.99100661 146.59449452 -476.88623047 141.65429688 C-478.27165039 140.26210938 -478.27165039 140.26210938 -479.68505859 138.84179688 C-481.40131835 137.11688786 -483.11654044 135.3909452 -484.83032227 133.66357422 C-488.25705647 130.21387973 -491.6842376 126.76569725 -495.17138672 123.37695312 C-496.20138095 122.36528153 -497.2313284 121.3535623 -498.26123047 120.34179688 C-499.03563477 119.5925293 -499.03563477 119.5925293 -499.82568359 118.828125 C-508.75561537 110.01195031 -508.75561537 110.01195031 -508.82373047 103.90429688 C-508.41640562 95.79853242 -501.65642159 90.57857864 -496.18701172 85.26367188 C-494.33801531 83.41830807 -492.63883075 81.51958528 -490.94873047 79.52929688 C-484.25608179 71.7645992 -476.85998691 64.56119285 -469.05810547 57.91992188 C-467.01572219 56.11781898 -465.10971336 54.2199074 -463.19873047 52.27929688 C-460.12093077 49.16591568 -456.9601854 46.2292063 -453.64013672 43.37695312 C-451.69904899 41.70917055 -449.77222091 40.02843566 -447.85107422 38.33789062 C-440.07878133 31.51688866 -432.18109495 24.92555037 -423.97021484 18.63867188 C-422.21084754 17.28859509 -420.46266824 15.92489352 -418.71435547 14.56054688 C-399.68002165 -0.14478007 -379.34293018 -13.27735269 -358.19873047 -24.72070312 C-357.30299316 -25.21231934 -356.40725586 -25.70393555 -355.484375 -26.21044922 C-262.83617783 -76.90106368 -157.32193371 -81.53554728 0 0 Z M-331.19873047 -8.72070312 C-332.43574707 -8.1104126 -332.43574707 -8.1104126 -333.69775391 -7.48779297 C-358.80876927 4.99617336 -382.09943784 20.50712635 -404.18652344 37.71240234 C-406.0834606 39.18953686 -407.9861201 40.65896299 -409.89013672 42.12695312 C-421.9248567 51.44587347 -433.36294328 61.3872013 -444.515625 71.73999023 C-445.80381547 72.91812208 -447.10393466 74.08322297 -448.40917969 75.24243164 C-454.7714988 80.89775695 -460.83427877 86.79466898 -466.82373047 92.84179688 C-467.73251953 93.75509766 -468.64130859 94.66839844 -469.57763672 95.609375 C-471.78701002 97.83037658 -473.99399078 100.0536972 -476.19873047 102.27929688 C-474.92406004 105.07122054 -473.60719078 107.12011319 -471.43652344 109.28442383 C-470.88189423 109.84212967 -470.32726501 110.39983551 -469.75582886 110.97444153 C-469.15690826 111.56617661 -468.55798767 112.15791168 -467.94091797 112.76757812 C-467.31903595 113.38900192 -466.69715393 114.01042572 -466.056427 114.65068054 C-464.73903833 115.96505104 -463.41922296 117.27699312 -462.09716797 118.58666992 C-460.09666901 120.56906591 -458.10413534 122.55919206 -456.11279297 124.55078125 C-447.68223607 132.95774058 -447.68223607 132.95774058 -438.81884766 140.90209961 C-436.26555354 143.07255351 -433.83828936 145.37028118 -431.38623047 147.65429688 C-425.84207777 152.76934914 -420.08893843 157.56557225 -414.19873047 162.27929688 C-413.0678909 163.20170063 -411.93771532 164.12491883 -410.80810547 165.04882812 C-388.88384062 182.90118977 -365.4956765 198.26901764 -340.72998047 211.88232422 C-338.58410398 213.06661292 -336.45153168 214.27003403 -334.32373047 215.48632812 C-270.08299313 251.32973953 -195.01387834 260.22950096 -124.49804688 240.40771484 C-89.51523861 230.15679926 -56.38063057 213.64004548 -26.19873047 193.27929688 C-25.50763184 192.81491211 -24.8165332 192.35052734 -24.10449219 191.87207031 C-15.27709695 185.9241118 -6.62951938 179.78147395 1.80126953 173.27929688 C2.62425537 172.64556152 2.62425537 172.64556152 3.46386719 171.99902344 C15.89416357 162.40382989 27.82442882 152.33752617 39.32275391 141.64453125 C40.73681107 140.33881665 42.16713305 139.05078276 43.59814453 137.76367188 C55.43307328 127.0558792 66.56392533 115.60594629 77.80126953 104.27929688 C76.2661513 100.63769588 74.081303 98.31486473 71.29345703 95.54101562 C70.38853516 94.63802734 69.48361328 93.73503906 68.55126953 92.8046875 C68.07818359 92.33780518 67.60509766 91.87092285 67.11767578 91.38989258 C65.6966877 89.98695567 64.2840651 88.57556195 62.87158203 87.1640625 C58.23780449 82.55973694 53.55054133 78.0825912 48.59326172 73.82836914 C45.81957728 71.43068143 43.16244964 68.91213793 40.48876953 66.40429688 C35.66678904 61.91865232 30.72291931 57.65829196 25.58251953 53.53710938 C23.1373745 51.55214613 20.75023147 49.5139844 18.37231445 47.44946289 C9.58384955 39.85464497 0.24266115 33.03506647 -9.19873047 26.27929688 C-9.88338379 25.78929199 -10.56803711 25.29928711 -11.2734375 24.79443359 C-53.17138062 -4.99849981 -100.13729131 -29.02596851 -151.19873047 -37.72070312 C-152.04725586 -37.87023437 -152.89578125 -38.01976562 -153.77001953 -38.17382812 C-213.89287894 -48.3145067 -277.07554716 -35.68334929 -331.19873047 -8.72070312 Z " fill="#FA9626" transform="translate(711.19873046875,325.720703125)"/>
<path d="M0 0 C4.09197134 3.38645904 5.48770918 7.0681981 7 12 C7.17461352 12.56914092 7.34922705 13.13828184 7.52913189 13.72466946 C8.13518488 16.65324086 8.13602583 19.41347613 8.14717102 22.4052887 C8.15790398 24.38384605 8.15790398 24.38384605 8.16885376 26.40237427 C8.1716939 27.8627317 8.17440564 29.32308938 8.17700195 30.78344727 C8.18326921 32.32282158 8.18991625 33.86219439 8.19691467 35.40156555 C8.21793195 40.45650179 8.22831711 45.51143823 8.23828125 50.56640625 C8.24233013 52.30958509 8.24644709 54.05276378 8.25063133 55.79594231 C8.26968044 63.9891959 8.28391023 72.18244051 8.2922433 80.37571198 C8.30200523 89.81688246 8.32829853 99.25781784 8.36874419 108.69890553 C8.39896789 116.00610597 8.41371822 123.31323928 8.41702431 130.62050098 C8.4193683 134.97986505 8.42824296 139.33897789 8.45348549 143.69827461 C8.47688003 147.80482508 8.48095414 151.91096095 8.47072411 156.01756096 C8.47023133 157.51747395 8.47647477 159.01740815 8.49028015 160.51725769 C8.60519466 173.75194159 6.36837197 184.20579294 -3 194 C-13.63712821 203.98466495 -24.16470521 205.59704063 -38.32250977 205.51757812 C-39.95468772 205.52300715 -41.58686077 205.53013417 -43.21902466 205.53881836 C-47.62604467 205.55696055 -52.03268762 205.55002248 -56.43971372 205.53730202 C-61.06528265 205.52712863 -65.6908207 205.53657953 -70.31639099 205.54284668 C-78.08102171 205.55010977 -85.8454999 205.54056984 -93.61010742 205.52148438 C-102.57161663 205.49971052 -111.53276185 205.50677609 -120.49426228 205.52879 C-128.20667422 205.54697306 -135.91897693 205.54948837 -143.63140339 205.53903532 C-148.22978391 205.53281733 -152.82799362 205.53191808 -157.42636299 205.54518127 C-161.74972226 205.55678186 -166.07261451 205.54863775 -170.39592361 205.52560425 C-171.97728769 205.52033987 -173.55869144 205.52179182 -175.14003944 205.53065491 C-183.45095109 205.57292216 -190.71247155 205.4617061 -198 201 C-197.3505542 200.35200439 -196.7011084 199.70400879 -196.03198242 199.03637695 C-192.95978843 195.96431755 -189.90222331 192.87782579 -186.84358215 189.7922821 C-183.54081908 186.46285848 -180.23284845 183.13863015 -176.92456055 179.81469727 C-175.17604009 178.05604425 -173.429308 176.29561145 -171.68432617 174.53344727 C-169.16529031 171.99028769 -166.6399698 169.45352237 -164.11328125 166.91796875 C-163.32995926 166.12432419 -162.54663727 165.33067963 -161.73957825 164.51298523 C-161.01509995 163.78835587 -160.29062164 163.0637265 -159.54418945 162.31713867 C-158.90641068 161.67491867 -158.2686319 161.03269867 -157.61152649 160.37101746 C-156 159 -156 159 -154 159 C-153.6596875 158.195625 -153.6596875 158.195625 -153.3125 157.375 C-150.25228755 151.83747271 -145.93456556 147.97623169 -141.18359375 143.92578125 C-137.26969531 140.47398888 -133.66015344 136.71635542 -130 133 C-129.0925 132.113125 -128.185 131.22625 -127.25 130.3125 C-124.89038038 127.94662406 -124.89038038 127.94662406 -122.5 125 C-120.12518454 122.15022145 -117.6369347 119.60666859 -115 117 C-114.00845311 116.0097765 -113.01758823 115.01886969 -112.02734375 114.02734375 C-109.96484375 111.96484375 -107.90234375 109.90234375 -105.83984375 107.83984375 C-105.35499512 107.35112793 -104.87014648 106.86241211 -104.37060547 106.35888672 C-103.17183319 105.17036401 -101.93447689 104.02101684 -100.69140625 102.87890625 C-98.89503859 100.88340314 -98.37538299 99.62768096 -98 97 C-97.32453125 97.20496094 -96.6490625 97.40992188 -95.953125 97.62109375 C-95.06109375 97.89050781 -94.1690625 98.15992188 -93.25 98.4375 C-92.36828125 98.70433594 -91.4865625 98.97117187 -90.578125 99.24609375 C-81.47110332 101.90920767 -72.11750344 101.86215034 -63.38671875 97.77734375 C-54.94523497 92.973768 -48.68556884 87.37204552 -44.875 78.296875 C-42.37174743 68.86497692 -43.29870039 58.28571741 -46 49 C-45.36191406 48.44570313 -44.72382812 47.89140625 -44.06640625 47.3203125 C-42.82697266 46.23363281 -42.82697266 46.23363281 -41.5625 45.125 C-40.73878906 44.40570313 -39.91507813 43.68640625 -39.06640625 42.9453125 C-36.94017845 41.16761255 -36.94017845 41.16761255 -36 39 C-35.34 39 -34.68 39 -34 39 C-33.773125 38.443125 -33.54625 37.88625 -33.3125 37.3125 C-31.65246087 34.38766915 -29.38694722 32.32617629 -27 30 C-24.41268915 27.44150343 -21.83163331 24.87672345 -19.25 22.3125 C-18.56550781 21.63638672 -17.88101563 20.96027344 -17.17578125 20.26367188 C-16.19931641 19.29204102 -16.19931641 19.29204102 -15.203125 18.30078125 C-14.61176758 17.71466064 -14.02041016 17.12854004 -13.41113281 16.5246582 C-11.90170176 15.03618182 -11.90170176 15.03618182 -11 13 C-10.34 13 -9.68 13 -9 13 C-8.67 12.01 -8.34 11.02 -8 10 C-7.34 10 -6.68 10 -6 10 C-6 9.34 -6 8.68 -6 8 C-5.34 8 -4.68 8 -4 8 C-3.71125 7.4225 -3.4225 6.845 -3.125 6.25 C-1.5625 3.125 -1.5625 3.125 0 0 Z " fill="#67CDFE" transform="translate(618,336)"/>
<path d="M0 0 C8.31168481 7.13293679 14.02600451 16.83468122 15.1484375 27.84375 C16.19496334 42.63663483 14.71168444 56.79957203 5.1484375 68.84375 C-6.03820067 79.63605398 -18.01703635 82.28691221 -33.07055664 82.27978516 C-46.80604114 82.02451525 -57.01255154 77.07165105 -66.5390625 67.21875 C-76.6422664 55.2197504 -76.93425337 39.71821152 -75.8515625 24.84375 C-75.05927837 20.77820056 -73.84650862 17.46191314 -71.8515625 13.84375 C-71.41585938 13.0496875 -70.98015625 12.255625 -70.53125 11.4375 C-64.40907213 1.40114283 -55.16153361 -5.28159572 -43.8515625 -8.46875 C-28.45794045 -11.27999658 -12.67704071 -9.68214113 0 0 Z " fill="#F99425" transform="translate(565.8515625,717.15625)"/>
<path d="M0 0 C13.75239483 -0.60429964 26.83690844 3.6437599 37.078125 12.90234375 C46.06809657 22.55233855 49.92140943 36.20789028 49.53125 49.16796875 C48.3205561 62.23682896 43.93414782 73.22552372 34.24609375 82.24609375 C25.35760077 89.37334831 12.16597954 93.1548399 0.796875 92.5625 C-13.35110047 90.80754439 -25.67617292 86.78693197 -34.75390625 75.24609375 C-40.85946397 65.93137874 -43.13968993 57.38248944 -43.06640625 46.37109375 C-43.0607666 45.48631348 -43.05512695 44.6015332 -43.04931641 43.68994141 C-42.82253805 31.5180061 -38.88427941 21.75659167 -30.75390625 12.55859375 C-22.41301816 4.75403771 -11.14277229 0.9957371 0 0 Z " fill="#F99526" transform="translate(636.75390625,707.75390625)"/>
<path d="M0 0 C7.89879012 7.06485411 11.90602643 15.47935089 13.9609375 25.75390625 C13.9609375 31.03390625 13.9609375 36.31390625 13.9609375 41.75390625 C-7.1590625 41.75390625 -28.2790625 41.75390625 -50.0390625 41.75390625 C-47.91809228 53.22168936 -47.91809228 53.22168936 -41.05078125 61.21875 C-33.25009152 65.82766815 -25.19394531 65.79352024 -16.42578125 64.3125 C-10.43671105 62.66783305 -6.3813494 59.07252946 -2.0390625 54.75390625 C2.88029652 58.87010461 7.48741706 63.15800987 11.9609375 67.75390625 C5.82586242 75.9033118 -4.01906452 81.0521479 -14.16015625 82.5390625 C-30.16323827 83.73332235 -44.72140823 82.87720253 -58.0390625 72.75390625 C-66.303783 65.39490855 -71.12466243 54.58064551 -72.26000977 43.62109375 C-73.00282194 29.64171564 -70.95651152 17.98157523 -62.0390625 6.75390625 C-46.27760727 -10.54525193 -19.46542749 -14.4362557 0 0 Z " fill="#F99424" transform="translate(812.0390625,716.24609375)"/>
<path d="M0 0 C0.72832031 0.25652344 1.45664062 0.51304687 2.20703125 0.77734375 C12.46833172 4.85039828 19.31729946 12.30107133 24.03515625 22.1640625 C27.24163572 30.84392785 26 38.25955379 26 48 C5.54 48 -14.92 48 -36 48 C-33.93986566 59.75545556 -33.93986566 59.75545556 -27 68 C-22.4066499 70.79969322 -18.48295577 71.51685626 -13.1875 71.4375 C-12.48044922 71.42992676 -11.77339844 71.42235352 -11.04492188 71.41455078 C-1.4096866 71.11151423 4.73073271 66.94218034 12 61 C16.06478107 65.61534219 20.08608295 70.25585812 24 75 C11.54523882 86.64249414 -2.50991072 89.82319719 -19.16796875 89.34765625 C-28.87334081 88.82156361 -36.88883029 85.62125614 -44 79 C-45.03447266 78.04480469 -45.03447266 78.04480469 -46.08984375 77.0703125 C-51.87006981 71.19321114 -54.56633045 64.80236545 -57 57 C-57.20238281 56.36707031 -57.40476562 55.73414063 -57.61328125 55.08203125 C-60.33911822 40.40656554 -56.71275435 25.5628552 -49 13 C-43.38421112 5.4419082 -34.71901938 0.51444051 -25.5625 -1.375 C-16.97587313 -2.57712776 -8.25716135 -2.93104105 0 0 Z " fill="#FA9525" transform="translate(361,710)"/>
<path d="M0 0 C2.02925683 1.43354697 3.82222124 2.9368532 5.625 4.64453125 C6.16640625 5.14597656 6.7078125 5.64742187 7.265625 6.1640625 C17.57537219 16.86433041 17.625 30.53900767 17.625 44.64453125 C-2.835 44.64453125 -23.295 44.64453125 -44.375 44.64453125 C-41.30490378 57.26680334 -41.30490378 57.26680334 -33.125 66.01953125 C-26.07278013 69.14944906 -16.55296581 68.98423385 -9.29296875 66.65625 C-4.9058784 64.53176697 -1.00629803 61.91269948 2.625 58.64453125 C5.95636597 60.06806649 7.90164757 61.77806255 10.25 64.51953125 C10.84039062 65.19757813 11.43078125 65.875625 12.0390625 66.57421875 C13.53818087 68.53119594 14.61069068 70.40501662 15.625 72.64453125 C3.62917282 84.10721056 -10.25810667 86.26170903 -26.21875 85.95703125 C-38.03676382 85.44320456 -48.00807529 80.49289401 -56.125 71.95703125 C-64.99131521 61.19813831 -67.32889114 48.20150433 -66.5703125 34.65771484 C-65.46771314 23.29267191 -59.80089213 12.05236985 -51.4921875 4.2421875 C-36.65802212 -6.95185981 -16.38525068 -9.35145063 0 0 Z " fill="#FA9526" transform="translate(186.375,713.35546875)"/>
<path d="M0 0 C7.92 0 15.84 0 24 0 C28.51547441 11.57561283 32.9956739 23.16300225 37.3996582 34.78149414 C38.01587775 36.40568339 38.6334229 38.02937024 39.25219727 39.65258789 C40.16702614 42.05249453 41.07807775 44.45380463 41.98828125 46.85546875 C42.39920769 47.93056953 42.39920769 47.93056953 42.81843567 49.02738953 C44.43423033 53.30701661 45.80165357 57.58467908 47 62 C47.66 62 48.32 62 49 62 C49.13535156 61.45754639 49.27070313 60.91509277 49.41015625 60.35620117 C51.88755115 50.85921166 54.99171497 41.56209734 58.04296875 32.23803711 C59.00076269 29.31016854 59.95380172 26.38078322 60.90625 23.45117188 C61.52055302 21.56761689 62.13512705 19.68415026 62.75 17.80078125 C63.03133789 16.93600662 63.31267578 16.07123199 63.60253906 15.18025208 C64.00811035 13.94307686 64.00811035 13.94307686 64.421875 12.6809082 C64.77137207 11.61148735 64.77137207 11.61148735 65.12792969 10.52046204 C66.34977923 6.98906629 67.68792202 3.49887462 69 0 C76.59 0 84.18 0 92 0 C88.62417986 11.25273379 88.62417986 11.25273379 87.13745117 15.09375 C86.63421829 16.40132767 86.63421829 16.40132767 86.12081909 17.73532104 C85.76512848 18.6476651 85.40943787 19.56000916 85.04296875 20.5 C84.66326935 21.482034 84.28356995 22.46406799 83.8923645 23.4758606 C82.66209075 26.6524145 81.42547136 29.82643873 80.1875 33 C79.55380997 34.62805573 79.55380997 34.62805573 78.90731812 36.28900146 C73.7370226 49.56547483 68.5448135 62.83440173 63.16665649 76.02832031 C62.60943707 77.39611492 62.05461462 78.7648892 61.50253296 80.13476562 C58.61427028 87.28496457 55.47575621 94.25987488 51.87890625 101.08203125 C51.55843826 101.69366119 51.23797028 102.30529114 50.90779114 102.93545532 C44.34751117 115.07861016 34.80289029 122.55236747 21.71484375 126.5546875 C17.85860813 127.18722111 13.90776815 127 10 127 C10 120.4 10 113.8 10 107 C12.7225 106.87625 12.7225 106.87625 15.5 106.75 C21.94401734 106.18074052 27.17832191 105.2449298 31.5625 100.203125 C34.52193439 95.86486322 35.61387208 92.29658642 36 87 C35.23800644 84.43462169 34.45216379 82.29000312 33.34375 79.890625 C33.04999985 79.21841415 32.75624969 78.54620331 32.45359802 77.85362244 C31.48451064 75.6452279 30.49231197 73.44804382 29.5 71.25 C28.81665714 69.70301646 28.13512615 68.15523142 27.45532227 66.60668945 C26.0346219 63.37414989 24.60608992 60.14523874 23.17236328 56.91845703 C20.01109656 49.78470327 16.95506319 42.60601522 13.89404297 35.42883301 C12.66950609 32.55954744 11.44072734 29.69209324 10.21096802 26.82504272 C9.63759484 25.48753354 9.06504252 24.14967212 8.49337769 22.81143188 C7.09043868 19.52904042 5.67466915 16.25322235 4.23486328 12.98681641 C3.95405411 12.34513016 3.67324493 11.70344391 3.38392639 11.04231262 C2.61586484 9.28870324 1.84241797 7.53745537 1.06860352 5.78637695 C0 3 0 3 0 0 Z " fill="#FA9526" transform="translate(208,710)"/>
<path d="M0 0 C8.13753646 4.82502162 14.52443448 12.37707417 17.51953125 21.453125 C19.44469654 31.6580662 19.16488976 41.33218742 13.8203125 50.41796875 C7.42480045 59.48971438 -0.82295286 65.32535567 -11.75 67.875 C-12.8225 67.91625 -13.895 67.9575 -15 68 C-16.216875 68.103125 -17.43375 68.20625 -18.6875 68.3125 C-28.354682 68.12515151 -37.27749641 63.78919509 -44 57 C-51.40399503 47.82619037 -55.19390806 37.83818694 -54 26 C-52.20868978 18.63003795 -49.08626191 12.60476434 -44 7 C-43.51015625 6.45601563 -43.0203125 5.91203125 -42.515625 5.3515625 C-30.87167075 -6.00417506 -14.09526643 -6.58948832 0 0 Z " fill="#F78F23" transform="translate(557,370)"/>
<path d="M0 0 C5.4917726 3.01302995 10.09115508 6.87707415 14.44921875 11.34375 C12.85447913 15.80902093 9.38018541 18.19882843 5.82421875 21.09375 C5.21320313 21.60035156 4.6021875 22.10695313 3.97265625 22.62890625 C2.46992822 23.8733529 0.96024408 25.10939128 -0.55078125 26.34375 C-1.04707031 25.94542969 -1.54335938 25.54710937 -2.0546875 25.13671875 C-9.97349245 18.96095246 -16.42949381 16.29521375 -26.55078125 17.34375 C-31.19021496 18.285767 -33.92317735 19.74403961 -37.36328125 23.03125 C-41.70336799 29.60338135 -43.09267558 35.48776956 -42.98828125 43.21875 C-42.98070801 44.00596436 -42.97313477 44.79317871 -42.96533203 45.60424805 C-42.77111952 52.48036323 -41.81815466 58.68324342 -37.08984375 63.98046875 C-31.0697435 69.3129941 -26.02541611 69.82832305 -18.18359375 69.73828125 C-12.09934436 69.07751868 -6.88780443 66.68077318 -2.55078125 62.34375 C1.8587396 62.87618453 4.83905649 65.72181268 8.19921875 68.40625 C8.80121094 68.87869141 9.40320313 69.35113281 10.0234375 69.83789062 C11.50331818 71.00065401 12.97689971 72.1714266 14.44921875 73.34375 C11.47577706 80.18855388 5.03009533 83.27399266 -1.55078125 86.15625 C-6.38652763 88.04455146 -10.37347764 89.09721173 -15.55078125 89.34375 C-16.35644531 89.39402344 -17.16210938 89.44429687 -17.9921875 89.49609375 C-32.25440596 90.01509733 -44.35406899 86.2810127 -54.86328125 76.59375 C-64.25640609 66.59461711 -67.17512114 53.18725538 -66.8359375 39.796875 C-65.80178592 27.2737243 -61.48041948 16.1759782 -52.296875 7.45703125 C-37.92728454 -3.60121688 -17.02928605 -6.96087605 0 0 Z " fill="#F99525" transform="translate(466.55078125,710.65625)"/>
<path d="M0 0 C7.26 0 14.52 0 22 0 C22 41.25 22 82.5 22 125 C14.74 125 7.48 125 0 125 C0 83.75 0 42.5 0 0 Z " fill="#F99528" transform="translate(701,673)"/>
<path d="M0 0 C0 7.26 0 14.52 0 22 C-3.465 21.87625 -3.465 21.87625 -7 21.75 C-14.35628334 21.67020356 -19.12153795 22.6463757 -24.703125 27.47265625 C-31.8309171 34.79075347 -32.44803736 44.52655325 -32.51171875 54.2578125 C-32.52966995 55.28687714 -32.54762115 56.31594177 -32.56611633 57.37619019 C-32.61979837 60.62575319 -32.65397923 63.87517294 -32.6875 67.125 C-32.72071027 69.34376976 -32.75520329 71.56252071 -32.79101562 73.78125 C-32.87788761 79.18751582 -32.93831687 84.59315502 -33 90 C-40.26 90 -47.52 90 -55 90 C-55 60.96 -55 31.92 -55 2 C-47.74 2 -40.48 2 -33 2 C-33 6.29 -33 10.58 -33 15 C-30.86421533 12.86421533 -29.13986417 10.91346421 -27.3125 8.5625 C-19.97956301 -0.108698 -10.62291356 -0.10517736 0 0 Z " fill="#F99628" transform="translate(896,708)"/>
<path d="M0 0 C5.84485236 2.69244638 9.14952399 7.08149509 12.16015625 12.6875 C14.64769441 20.05061295 14.64769441 30.57438705 12.16015625 37.9375 C8.85181024 44.09786843 5.52365884 48.01849562 -0.98828125 50.62109375 C-8.72007421 52.6277321 -16.71987102 52.35644242 -23.65234375 48.3125 C-28.95575484 44.98245117 -31.3703212 40.31139153 -33.2421875 34.47265625 C-34.98523634 25.29259901 -34.32682448 15.50306244 -29.65234375 7.3125 C-27.55129357 4.88971128 -25.36289844 3.01848508 -22.65234375 1.3125 C-22.08 0.93996094 -21.50765625 0.56742188 -20.91796875 0.18359375 C-14.96802425 -2.10405732 -6.07758235 -1.57533799 0 0 Z " fill="#FEFBF4" transform="translate(545.65234375,728.6875)"/>
<path d="M0 0 C6.05371825 2.83194774 9.1554258 7.20536772 11.67749023 13.22387695 C12.84873019 17.01138149 12.74372796 20.78201027 12.6875 24.71484375 C12.69910156 25.52244141 12.71070313 26.33003906 12.72265625 27.16210938 C12.69116964 33.67459026 11.68183694 39.37755824 7.48046875 44.51953125 C6.82691406 45.05835938 6.17335938 45.5971875 5.5 46.15234375 C4.53126953 46.98378906 4.53126953 46.98378906 3.54296875 47.83203125 C-2.98299445 52.06076397 -10.17362529 52.00389957 -17.6875 51.27734375 C-23.8998958 49.59586871 -28.27027916 45.64269983 -31.6875 40.27734375 C-35.9662187 31.88136744 -35.92922619 22.34803661 -33.1875 13.46484375 C-30.65058524 7.19504012 -26.45012431 3.7496876 -20.921875 0.1171875 C-14.95827677 -2.12437477 -6.06108455 -1.62979744 0 0 Z " fill="#FEFBF4" transform="translate(650.6875,728.72265625)"/>
<path d="M0 0 C3.06881816 1.71904752 5.40357084 3.80714167 7 7 C7.11255715 9.21969237 7.15938336 11.4428087 7.17700195 13.6652832 C7.18357315 14.3500473 7.19014435 15.0348114 7.19691467 15.74032593 C7.21665361 18.01047878 7.22831177 20.28056546 7.23828125 22.55078125 C7.24235678 23.32601828 7.2464323 24.1012553 7.25063133 24.89998436 C7.27149505 29.00355132 7.28579519 33.10708482 7.29516602 37.21069336 C7.30622862 41.4477713 7.34062537 45.68432378 7.38033772 49.92121601 C7.40649325 53.18034334 7.41485689 56.43934529 7.41844749 59.69856834 C7.42331659 61.26027155 7.43493989 62.82196904 7.45348549 64.38356972 C7.47785488 66.57164658 7.47691682 68.75836196 7.4699707 70.9465332 C7.47877007 72.81279106 7.47877007 72.81279106 7.48774719 74.7167511 C6.91100995 78.5990326 5.70754882 80.21802734 3 83 C-0.48664451 85.52481154 -3.79751118 85.43474022 -8 85 C-12.97934299 82.5103285 -14.89628648 80.07803878 -17 75 C-17.38768005 71.81323242 -17.38768005 71.81323242 -17.40405273 68.35546875 C-17.41673691 67.05391846 -17.42942108 65.75236816 -17.44248962 64.41137695 C-17.44043814 63.00341634 -17.43745008 61.59545683 -17.43359375 60.1875 C-17.43815949 58.73071042 -17.44346623 57.273923 -17.44947815 55.81713867 C-17.45839093 52.77090681 -17.4560067 49.72493738 -17.44604492 46.67871094 C-17.43454846 42.78476883 -17.45478524 38.89173269 -17.48396206 34.99790955 C-17.50235043 31.99176328 -17.5020266 28.98583319 -17.49632454 25.97964478 C-17.49617169 24.54439013 -17.50218573 23.1091205 -17.51461601 21.67391968 C-17.52957381 19.66417459 -17.51619429 17.6542798 -17.50170898 15.64453125 C-17.50154282 14.50346924 -17.50137665 13.36240723 -17.50120544 12.18676758 C-16.77069486 7.54203062 -14.40535861 4.56150957 -11.3125 1.125 C-7.59020323 -0.68584708 -4.04418256 -0.76965412 0 0 Z " fill="#FA9627" transform="translate(517,134)"/>
<path d="M0 0 C3.78687091 0.85880822 5.55904776 2.67050759 8.1875 5.49609375 C10.73937841 13.15172898 8.78553814 18.2288847 5.35163879 25.20243835 C4.7986058 26.28289932 4.24557281 27.36336029 3.67578125 28.4765625 C3.11054245 29.60757889 2.54530365 30.73859528 1.9629364 31.90388489 C0.76733609 34.2874013 -0.43386848 36.66684407 -1.64624023 39.04174805 C-3.19275686 42.07239139 -4.71600295 45.11400966 -6.23190594 48.16005993 C-7.68958792 51.08340802 -9.16355793 53.99849162 -10.63671875 56.9140625 C-11.17963058 58.00059616 -11.72254242 59.08712982 -12.28190613 60.20658875 C-18.1562759 71.6679817 -18.1562759 71.6679817 -23.8125 74.49609375 C-29.06529338 74.84053922 -32.63884624 75.07351126 -36.8125 71.49609375 C-39.58810992 67.51771953 -40.11886056 64.67500281 -39.41708374 59.90097046 C-38.13430905 54.79842673 -35.59595635 50.19198609 -33.23828125 45.515625 C-32.67682907 44.38460861 -32.11537689 43.25359222 -31.53691101 42.08830261 C-30.34988112 39.705801 -29.15824792 37.32636014 -27.95825195 34.95043945 C-26.42860173 31.91973915 -24.92275215 28.87791427 -23.42341328 25.83212757 C-21.97924076 22.90742655 -20.51397871 19.99334273 -19.05078125 17.078125 C-18.51616776 15.99159134 -17.98155426 14.90505768 -17.43074036 13.78559875 C-13.39848093 5.86803964 -9.71966068 -0.54180541 0 0 Z " fill="#F99525" transform="translate(632.8125,163.50390625)"/>
<path d="M0 0 C6.3193242 3.02888837 8.43945625 7.74799583 11.4375 13.875 C11.93540039 14.86717529 12.43330078 15.85935059 12.94628906 16.8815918 C14.03925431 19.06167308 15.1263803 21.24468891 16.20849609 23.43017578 C17.7919836 26.58549798 19.41318081 29.71504533 21.0594635 32.83770752 C22.46081073 35.50011101 23.84469324 38.17138987 25.22634888 40.84405518 C25.90258067 42.14442494 26.585157 43.44151721 27.27438354 44.73504639 C34.72570269 58.75969556 34.72570269 58.75969556 33 67 C31.70078664 70.0425755 30.74408951 70.81592876 28 73 C23.76262692 74.34860337 20.33106217 74.53242487 16.1875 72.875 C11.52749861 68.8807131 8.82287097 64.0549253 6.171875 58.6015625 C5.81917542 57.88954681 5.46647583 57.17753113 5.10308838 56.44393921 C3.97962482 54.17375243 2.86435183 51.89967127 1.75 49.625 C0.28971446 46.65723952 -1.17475394 43.69156736 -2.640625 40.7265625 C-2.99929153 39.99769333 -3.35795807 39.26882416 -3.72749329 38.51786804 C-5.52224763 34.89132318 -7.36004639 31.29969532 -9.30151367 27.74926758 C-9.67020569 27.07411102 -10.03889771 26.39895447 -10.41876221 25.70333862 C-11.11431998 24.43968224 -11.81730786 23.18007415 -12.52923584 21.92556763 C-14.89704763 17.63239546 -16.03868466 13.99808108 -15.60546875 9.09375 C-14.5519542 5.45062873 -12.76835575 3.57061606 -10 1 C-6.83350487 -0.58324757 -3.42541806 -0.64374236 0 0 Z " fill="#F99425" transform="translate(397,164)"/>
<path d="M0 0 C6.97133021 4.48264028 8.80870024 9.13714472 10.81640625 17.16796875 C-3.37359375 17.16796875 -17.56359375 17.16796875 -32.18359375 17.16796875 C-30.95594824 9.80209571 -28.74642747 4.67264125 -22.62109375 0.16796875 C-15.94622288 -3.56693064 -6.90281165 -3.0695175 0 0 Z " fill="#FEFBF4" transform="translate(794.18359375,726.83203125)"/>
<path d="M0 0 C5.83145569 4.99347092 7.05039503 8.20158013 9 16 C-4.86 16 -18.72 16 -33 16 C-29.88238235 5.60794118 -28.26150873 2.69268464 -19.5625 -2.4375 C-12.8276346 -3.91588509 -5.99291242 -3.64203417 0 0 Z " fill="#FEFBF4" transform="translate(358,728)"/>
<path d="M0 0 C5.71201607 2.60624307 9.1741094 6.3013438 11.9921875 11.9375 C12.6796875 14.3125 12.6796875 14.3125 12.6796875 18.3125 C-0.5203125 18.3125 -13.7203125 18.3125 -27.3203125 18.3125 C-26.28056764 11.03428595 -25.17636384 7.8829462 -19.8203125 3.0625 C-13.63656452 -1.26612358 -7.35948705 -2.18058875 0 0 Z " fill="#FEFBF5" transform="translate(170.3203125,725.6875)"/>
<path d="M0 0 C0.33 0 0.66 0 1 0 C1 28.05 1 56.1 1 85 C0.67 85 0.34 85 0 85 C0 64.87 0 44.74 0 24 C-0.99 23.67 -1.98 23.34 -3 23 C-2.01 23 -1.02 23 0 23 C0 19.37 0 15.74 0 12 C-1.32 11.34 -2.64 10.68 -4 10 C-3.34 10 -2.68 10 -2 10 C-1.67 9.01 -1.34 8.02 -1 7 C-1.33 6.34 -1.66 5.68 -2 5 C-1.34 5 -0.68 5 0 5 C0 3.35 0 1.7 0 0 Z " fill="#7CD2FD" transform="translate(624,353)"/>
<path d="M0 0 C0 0.99 0 1.98 0 3 C-0.66 3 -1.32 3 -2 3 C-2.2475 3.5775 -2.495 4.155 -2.75 4.75 C-4.18299988 7.32939979 -5.78424676 9.06121592 -8 11 C-8.66 11 -9.32 11 -10 11 C-10.33 12.65 -10.66 14.3 -11 16 C-11.66 16 -12.32 16 -13 16 C-13.66 18.31 -14.32 20.62 -15 23 C-15.99430536 20.40408901 -16.13040485 19.32082866 -15.06640625 16.703125 C-11.25495849 10.48601021 -6.72654304 3.36327152 0 0 Z " fill="#76D1FD" transform="translate(416,326)"/>
<path d="M0 0 C0.66 0.33 1.32 0.66 2 1 C1.34 1.66 0.68 2.32 0 3 C-0.6425235 5.06874034 -0.6425235 5.06874034 -1 7 C-1.66 7 -2.32 7 -3 7 C-3 7.66 -3 8.32 -3 9 C-4.65 9 -6.3 9 -8 9 C-7.43416161 5.71813734 -6.58727596 4.10815078 -4 2 C-1.9375 0.75 -1.9375 0.75 0 0 Z " fill="#72CDF0" transform="translate(570,423)"/>
<path d="M0 0 C1.65 0 3.3 0 5 0 C5.33 0.66 5.66 1.32 6 2 C5.0625 4.125 5.0625 4.125 4 6 C3.34 6 2.68 6 2 6 C1.67 6.99 1.34 7.98 1 9 C0.67 9 0.34 9 0 9 C0 6.03 0 3.06 0 0 Z " fill="#7ED3FD" transform="translate(399,441)"/>
<path d="M0 0 C0.33 0 0.66 0 1 0 C1.144375 1.11375 1.28875 2.2275 1.4375 3.375 C1.78372035 6.82142047 1.78372035 6.82142047 3 9 C2.34 9 1.68 9 1 9 C0.67 9.66 0.34 10.32 0 11 C-1.98 11.33 -3.96 11.66 -6 12 C-4.02 8.04 -2.04 4.08 0 0 Z " fill="#6AD2F4" transform="translate(573,413)"/>
<path d="M0 0 C0.66 0 1.32 0 2 0 C1.52343588 1.79236067 1.04366502 3.58386897 0.5625 5.375 C0.29566406 6.37273438 0.02882813 7.37046875 -0.24609375 8.3984375 C-1 11 -1 11 -2 13 C-2.66 13 -3.32 13 -4 13 C-4.33 11.35 -4.66 9.7 -5 8 C-4.01 8.495 -4.01 8.495 -3 9 C-2.01 6.03 -1.02 3.06 0 0 Z " fill="#FEF3E4" transform="translate(259,759)"/>
<path d="M0 0 C0.66 0 1.32 0 2 0 C2 0.99 2 1.98 2 3 C3.32 3.66 4.64 4.32 6 5 C2.28561327 6.06125335 -1.14694846 6 -5 6 C-4.67 5.34 -4.34 4.68 -4 4 C-3.34 4 -2.68 4 -2 4 C-1.34 2.68 -0.68 1.36 0 0 Z " fill="#7FD3FD" transform="translate(412,370)"/>
<path d="M0 0 C2.00720923 0.28674418 4.0085944 0.61866701 6 1 C5.360625 1.103125 4.72125 1.20625 4.0625 1.3125 C3.0415625 1.6528125 3.0415625 1.6528125 2 2 C1.67 2.99 1.34 3.98 1 5 C-0.32 5 -1.64 5 -3 5 C-1.125 1.125 -1.125 1.125 0 0 Z " fill="#7BD2FD" transform="translate(487,421)"/>
<path d="M0 0 C3.44754086 1.53224038 6.09793334 3.60579501 9 6 C10.32901064 7.00573778 11.66073801 8.00795408 13 9 C8.47328804 8.46744565 5.5799445 6.78440128 2 4 C0.625 1.75 0.625 1.75 0 0 Z " fill="#FA8917" transform="translate(619,771)"/>
<path d="M0 0 C1.31625194 2.63250388 0.74813658 3.80179056 0.0625 6.625 C-0.13214844 7.44226563 -0.32679688 8.25953125 -0.52734375 9.1015625 C-0.68332031 9.72804688 -0.83929688 10.35453125 -1 11 C-1.99 11 -2.98 11 -4 11 C-3.5247412 9.35303396 -3.04468109 7.70745272 -2.5625 6.0625 C-2.29566406 5.14597656 -2.02882813 4.22945312 -1.75390625 3.28515625 C-1 1 -1 1 0 0 Z " fill="#FEF4E5" transform="translate(329,733)"/>
<path d="M0 0 C3.37582047 0.60282508 5.34156791 1.87325432 8 4 C8.66 4.33 9.32 4.66 10 5 C10 5.66 10 6.32 10 7 C5.56541027 5.6062718 3.12621626 3.39417765 0 0 Z " fill="#FEF2E2" transform="translate(517,772)"/>
<path d="M0 0 C0.66 0 1.32 0 2 0 C2 0.66 2 1.32 2 2 C2.66 2 3.32 2 4 2 C4 2.99 4 3.98 4 5 C3.01 5 2.02 5 1 5 C0.67 5.66 0.34 6.32 0 7 C-0.38133299 5.0085944 -0.71325582 3.00720923 -1 1 C-0.67 0.67 -0.34 0.34 0 0 Z " fill="#73CEF6" transform="translate(573,384)"/>
<path d="M0 0 C1.11375 0.495 1.11375 0.495 2.25 1 C5.13883312 2.22782871 5.13883312 2.22782871 9 2 C9.33 3.65 9.66 5.3 10 7 C8.51719804 6.21516341 7.0388502 5.42190666 5.5625 4.625 C4.73878906 4.18414062 3.91507813 3.74328125 3.06640625 3.2890625 C1 2 1 2 0 0 Z " fill="#7FDBF3" transform="translate(554,368)"/>
<path d="M0 0 C0 0.66 0 1.32 0 2 C-1.26607607 2.53229326 -2.53810412 3.05044544 -3.8125 3.5625 C-4.52019531 3.85253906 -5.22789062 4.14257812 -5.95703125 4.44140625 C-8 5 -8 5 -11 4 C-9.5437455 3.32880451 -8.08492133 2.66318193 -6.625 2 C-5.81289063 1.62875 -5.00078125 1.2575 -4.1640625 0.875 C-2 0 -2 0 0 0 Z " fill="#FEF4E6" transform="translate(395,311)"/>
<path d="M0 0 C0 0.66 0 1.32 0 2 C-2.35438733 3.42944945 -3.48032433 4.08661261 -6.25 3.625 C-6.8275 3.41875 -7.405 3.2125 -8 3 C-7.67 2.34 -7.34 1.68 -7 1 C-4.61370553 0.38812962 -2.46459429 0 0 0 Z " fill="#80D4FD" transform="translate(473,469)"/>
<path d="M0 0 C2.76223278 2.76223278 2.57856291 5.20706617 3 9 C1.68 8.34 0.36 7.68 -1 7 C-0.67 4.69 -0.34 2.38 0 0 Z " fill="#74DCF8" transform="translate(503,409)"/>
</svg>
